<svg width="124" height="45" viewBox="0 0 124 45" fill="none" xmlns="http://www.w3.org/2000/svg">
<path d="M0 34.9091V8.72727H5.98295V13.0909H6.25568C6.73295 11.5795 7.55114 10.4148 8.71023 9.59659C9.88068 8.76705 11.2159 8.35227 12.7159 8.35227C13.0568 8.35227 13.4375 8.36932 13.858 8.40341C14.2898 8.42614 14.6477 8.46591 14.9318 8.52273V14.1989C14.6705 14.108 14.2557 14.0284 13.6875 13.9602C13.1307 13.8807 12.5909 13.8409 12.0682 13.8409C10.9432 13.8409 9.93182 14.0852 9.03409 14.5739C8.14773 15.0511 7.44886 15.7159 6.9375 16.5682C6.42614 17.4205 6.17045 18.4034 6.17045 19.517V34.9091H0Z" fill="url(#paint0_linear_2099_1806)"/>
<path d="M28.584 35.4205C25.959 35.4205 23.692 34.875 21.7829 33.7841C19.8852 32.6818 18.4249 31.125 17.4022 29.1136C16.3795 27.0909 15.8681 24.7102 15.8681 21.9716C15.8681 19.2784 16.3795 16.9148 17.4022 14.8807C18.4363 12.8352 19.8795 11.2443 21.7318 10.108C23.584 8.96023 25.7602 8.38636 28.2602 8.38636C29.8738 8.38636 31.3965 8.64773 32.8284 9.17045C34.2715 9.68182 35.5443 10.4773 36.6465 11.5568C37.7602 12.6364 38.6352 14.0114 39.2715 15.6818C39.9079 17.3409 40.2261 19.3182 40.2261 21.6136V23.5057H18.7659V19.3466H34.3113C34.2999 18.1648 34.0443 17.1136 33.5443 16.1932C33.0443 15.2614 32.3454 14.5284 31.4477 13.9943C30.5613 13.4602 29.5272 13.1932 28.3454 13.1932C27.084 13.1932 25.9761 13.5 25.0215 14.1136C24.067 14.7159 23.3227 15.5114 22.7886 16.5C22.2659 17.4773 21.9988 18.5511 21.9874 19.7216V23.3523C21.9874 24.875 22.2659 26.1818 22.8227 27.2727C23.3795 28.3523 24.1579 29.1818 25.1579 29.7614C26.1579 30.3295 27.3284 30.6136 28.6693 30.6136C29.567 30.6136 30.3795 30.4886 31.1068 30.2386C31.834 29.9773 32.4647 29.5966 32.9988 29.0966C33.5329 28.5966 33.9363 27.9773 34.209 27.2386L39.9704 27.8864C39.6068 29.4091 38.9136 30.7386 37.8909 31.875C36.8795 33 35.584 33.875 34.0045 34.5C32.4249 35.1136 30.6181 35.4205 28.584 35.4205Z" fill="url(#paint1_linear_2099_1806)"/>
<path d="M52.0203 35.4375C50.3613 35.4375 48.8669 35.142 47.5374 34.5511C46.2192 33.9489 45.1738 33.0625 44.401 31.892C43.6397 30.7216 43.259 29.2784 43.259 27.5625C43.259 26.0852 43.5317 24.8636 44.0772 23.8977C44.6226 22.9318 45.3669 22.1591 46.3101 21.5795C47.2533 21 48.3158 20.5625 49.4976 20.267C50.6908 19.9602 51.9238 19.7386 53.1965 19.6023C54.7306 19.4432 55.9749 19.3011 56.9294 19.1761C57.884 19.0398 58.5772 18.8352 59.009 18.5625C59.4522 18.2784 59.6738 17.8409 59.6738 17.25V17.1477C59.6738 15.8636 59.2931 14.8693 58.5317 14.1648C57.7703 13.4602 56.6737 13.108 55.2419 13.108C53.7306 13.108 52.5317 13.4375 51.6453 14.0966C50.7703 14.7557 50.1794 15.5341 49.8726 16.4318L44.1113 15.6136C44.5658 14.0227 45.3158 12.6932 46.3613 11.625C47.4067 10.5455 48.6851 9.73864 50.1965 9.20455C51.7078 8.65909 53.3783 8.38636 55.2078 8.38636C56.4692 8.38636 57.7249 8.53409 58.9749 8.82955C60.2249 9.125 61.3669 9.61364 62.401 10.2955C63.4351 10.9659 64.2647 11.8807 64.8897 13.0398C65.526 14.1989 65.8442 15.6477 65.8442 17.3864V34.9091H59.9124V31.3125H59.7078C59.3328 32.0398 58.8044 32.7216 58.1226 33.358C57.4522 33.983 56.6056 34.4886 55.5828 34.875C54.5715 35.25 53.384 35.4375 52.0203 35.4375ZM53.6226 30.9034C54.8613 30.9034 55.9351 30.6591 56.8442 30.1705C57.7533 29.6705 58.4522 29.0114 58.9408 28.1932C59.4408 27.375 59.6908 26.483 59.6908 25.517V22.4318C59.4976 22.5909 59.1681 22.7386 58.7022 22.875C58.2476 23.0114 57.7363 23.1307 57.1681 23.233C56.5999 23.3352 56.0374 23.4261 55.4806 23.5057C54.9238 23.5852 54.4408 23.6534 54.0317 23.7102C53.1113 23.8352 52.2874 24.0398 51.5601 24.3239C50.8328 24.608 50.259 25.0057 49.8385 25.517C49.4181 26.017 49.2078 26.6648 49.2078 27.4602C49.2078 28.5966 49.6226 29.4545 50.4522 30.0341C51.2817 30.6136 52.3385 30.9034 53.6226 30.9034Z" fill="url(#paint2_linear_2099_1806)"/>
<path d="M77.2592 0V34.9091H71.0888V0H77.2592Z" fill="url(#paint3_linear_2099_1806)"/>
<path d="M95.7182 8.72727V13.5H80.6671V8.72727H95.7182ZM84.383 2.45455H90.5535V27.0341C90.5535 27.8636 90.6785 28.5 90.9285 28.9432C91.1898 29.375 91.5307 29.6705 91.9512 29.8295C92.3716 29.9886 92.8376 30.0682 93.3489 30.0682C93.7353 30.0682 94.0876 30.0398 94.4057 29.983C94.7353 29.9261 94.9853 29.875 95.1557 29.8295L96.1955 34.6534C95.866 34.767 95.3944 34.892 94.7807 35.0284C94.1785 35.1648 93.4398 35.2443 92.5648 35.267C91.0194 35.3125 89.6273 35.0795 88.3887 34.5682C87.1501 34.0455 86.1671 33.2386 85.4398 32.1477C84.7239 31.0568 84.3717 29.6932 84.383 28.0568V2.45455Z" fill="url(#paint4_linear_2099_1806)"/>
<path d="M103.754 44.7273C102.913 44.7273 102.135 44.6591 101.419 44.5227C100.714 44.3977 100.152 44.25 99.7312 44.0795L101.163 39.2727C102.061 39.5341 102.862 39.6591 103.566 39.6477C104.271 39.6364 104.89 39.4148 105.424 38.983C105.97 38.5625 106.43 37.858 106.805 36.8693L107.334 35.4545L97.8392 8.72727H104.385L110.419 28.5H110.691L116.743 8.72727H123.305L112.822 38.0795C112.334 39.4659 111.686 40.6534 110.879 41.642C110.072 42.642 109.084 43.4034 107.913 43.9261C106.754 44.4602 105.368 44.7273 103.754 44.7273Z" fill="url(#paint5_linear_2099_1806)"/>
<defs>
<linearGradient id="paint0_linear_2099_1806" x1="-3.17047" y1="17.9091" x2="124.83" y2="17.9091" gradientUnits="userSpaceOnUse">
<stop stop-color="#1570EF"/>
<stop offset="1" stop-color="#2E90FA"/>
</linearGradient>
<linearGradient id="paint1_linear_2099_1806" x1="-3.17047" y1="17.9091" x2="124.83" y2="17.9091" gradientUnits="userSpaceOnUse">
<stop stop-color="#1570EF"/>
<stop offset="1" stop-color="#2E90FA"/>
</linearGradient>
<linearGradient id="paint2_linear_2099_1806" x1="-3.17047" y1="17.9091" x2="124.83" y2="17.9091" gradientUnits="userSpaceOnUse">
<stop stop-color="#1570EF"/>
<stop offset="1" stop-color="#2E90FA"/>
</linearGradient>
<linearGradient id="paint3_linear_2099_1806" x1="-3.17047" y1="17.9091" x2="124.83" y2="17.9091" gradientUnits="userSpaceOnUse">
<stop stop-color="#1570EF"/>
<stop offset="1" stop-color="#2E90FA"/>
</linearGradient>
<linearGradient id="paint4_linear_2099_1806" x1="-3.17047" y1="17.9091" x2="124.83" y2="17.9091" gradientUnits="userSpaceOnUse">
<stop stop-color="#1570EF"/>
<stop offset="1" stop-color="#2E90FA"/>
</linearGradient>
<linearGradient id="paint5_linear_2099_1806" x1="-3.17047" y1="17.9091" x2="124.83" y2="17.9091" gradientUnits="userSpaceOnUse">
<stop stop-color="#1570EF"/>
<stop offset="1" stop-color="#2E90FA"/>
</linearGradient>
</defs>
</svg>
